<?xml version="1.0" ?><svg id="Shopping_Bag" style="enable-background:new 0 0 32 32;" version="1.1" viewBox="0 0 32 32" xml:space="preserve" xmlns="http://www.w3.org/2000/svg" xmlns:xlink="http://www.w3.org/1999/xlink"><style type="text/css">
	.st0{fill:#F25949;}
	.st1{fill:#393B3D;}
</style><g><path class="st0" d="M27.5,7.515h-4.401c0.056,0.327,0.094,0.659,0.094,1v2.364c0,0.552-0.447,1-1,1s-1-0.448-1-1V8.515   c0-0.345-0.054-0.677-0.138-1H10.946c-0.085,0.323-0.138,0.655-0.138,1v2.364c0,0.552-0.448,1-1,1s-1-0.448-1-1V8.515   c0-0.341,0.038-0.673,0.094-1H4.5c-0.552,0-1,0.448-1,1v17.822C3.5,28.356,5.143,30,7.163,30h17.674   c2.02,0,3.663-1.644,3.663-3.663V8.515C28.5,7.963,28.053,7.515,27.5,7.515z"/><path class="st1" d="M8.808,10.879c0,0.552,0.448,1,1,1s1-0.448,1-1V8.515c0-0.345,0.054-0.677,0.138-1C11.472,5.507,13.533,4,16,4   s4.528,1.507,5.054,3.515c0.085,0.323,0.138,0.655,0.138,1v2.364c0,0.552,0.447,1,1,1s1-0.448,1-1V8.515   c0-0.341-0.038-0.673-0.094-1C22.565,4.397,19.59,2,16,2S9.435,4.397,8.901,7.515c-0.056,0.327-0.094,0.659-0.094,1V10.879z"/></g></svg>