<?xml version="1.0" ?><svg style="enable-background:new 0 0 32 32;" version="1.1" viewBox="0 0 32 32" xml:space="preserve" xmlns="http://www.w3.org/2000/svg" xmlns:xlink="http://www.w3.org/1999/xlink"><style type="text/css">
	.st0{fill:#B9F3F8;}
	.st1{fill:#55C1FA;}
	.st2{fill:#FBC34E;}
	.st3{opacity:0.05;}
	.st4{fill:#FFFFFF;}
	.st5{fill:#7A442A;}
	.st6{fill:#C77C58;}
	.st7{fill:#E4EDF2;}
	.st8{fill:#F25949;}
	.st9{fill:#FA9B55;}
	.st10{fill:#E5A533;}
	.st11{fill:#6FA7AB;}
	.st12{fill:#20A56C;}
	.st13{fill:#F2C09E;}
	.st14{fill:#F4E8D0;}
	.st15{fill:#F2AB38;}
	.st16{fill:#393B3D;}
	.st17{fill:#ACE4E5;}
	.st18{fill:#659899;}
	.st19{fill:#E3FAFC;}
	.st20{fill:#DDF1F2;}
	.st21{fill:#16F293;}
	.st22{fill:#5C3320;}
	.st23{fill:#AD410D;}
	.st24{fill:#8B9CA5;}
	.st25{fill:#B26C50;}
	.st26{fill:#DAE1E5;}
	.st27{fill:#425158;}
	.st28{fill:#829299;}
	.st29{fill:#A5795C;}
	.st30{fill:#7A7468;}
	.st31{fill:#7B3ABF;}
	.st32{fill:#B564FF;}
	.st33{fill:#2B617D;}
</style><g id="Magnifier"/><g id="Gear"/><g id="Home"/><g id="Shield"/><g id="Star"/><g id="Flash"/><g id="Heart"/><g id="Hearts"/><g id="Shopping_Bag"/><g id="Token"/><g id="Warning"/><g id="Warning_B"/><g id="Chat"/><g id="Diamond"/><g id="Hanger"/><g id="Warning_C"/><g id="Potion"/><g id="Hourglass"/><g id="Trophy"/><g id="Bomb"/><g id="Gem"/><g id="Spell_Book"/><g id="User"/><g id="Users"/><g id="Treasure_Chest"/><g id="Treasure_Chest_Open"/><g id="Sack"/><g id="Fishing_Pin"/><g id="Sword"/><g id="Sword_And_Shield"/><g id="Backpack"/><g id="Key"/><g id="Meat"/><g id="Skull"/><g id="Store"><g><path class="st7" d="M23.8,14.585c-0.656,0.582-1.579,0.945-2.6,0.945s-1.944-0.363-2.6-0.945c-0.656,0.582-1.579,0.945-2.6,0.945    s-1.944-0.363-2.6-0.945c-0.656,0.582-1.579,0.945-2.6,0.945s-1.944-0.363-2.6-0.945c-0.656,0.582-1.579,0.945-2.6,0.945    c-0.349,0-0.68-0.056-1-0.135V27.47c0,0.55,0.45,1,1,1h2.24v-8.36c0-0.56,0.45-1,1-1h5.32c0.55,0,1,0.44,1,1v8.36H26.4    c0.55,0,1-0.45,1-1V15.395c-0.32,0.079-0.651,0.135-1,0.135C25.379,15.53,24.456,15.167,23.8,14.585z M24.161,23.287    c0,0.553-0.448,1-1,1h-6.107c-0.552,0-1-0.447-1-1v-3.182c0-0.553,0.448-1,1-1h6.107c0.552,0,1,0.447,1,1V23.287z"/><path class="st8" d="M30,12.47c0.033-0.364-2.137-6.527-2.199-6.873c-0.405-1.236-1.55-2.066-2.851-2.066H7.049    c-1.3,0-2.446,0.83-2.851,2.066C4.14,5.928,1.963,12.129,2,12.47c0,1.391,1.103,2.554,2.6,2.925c0.32,0.079,0.651,0.135,1,0.135    c1.021,0,1.944-0.363,2.6-0.945c0.656,0.582,1.579,0.945,2.6,0.945s1.944-0.363,2.6-0.945c0.656,0.582,1.579,0.945,2.6,0.945    s1.944-0.363,2.6-0.945c0.656,0.582,1.579,0.945,2.6,0.945s1.944-0.363,2.6-0.945c0.656,0.582,1.579,0.945,2.6,0.945    c0.349,0,0.68-0.056,1-0.135C28.897,15.024,30,13.86,30,12.47z"/><path class="st0" d="M14.16,19.11H8.84c-0.55,0-1,0.44-1,1v8.36h7.32v-8.36C15.16,19.55,14.71,19.11,14.16,19.11z"/><path class="st0" d="M23.161,19.105h-6.107c-0.552,0-1,0.447-1,1v3.182c0,0.553,0.448,1,1,1h6.107c0.552,0,1-0.447,1-1v-3.182    C24.161,19.553,23.713,19.105,23.161,19.105z"/></g></g><g id="Helmet"/><g id="Anvil"/><g id="Axe"/><g id="Spear"/><g id="Food"/><g id="Bow"/><g id="Scroll"/><g id="Armor"/><g id="Hat"/><g id="Wand"/><g id="Map"/><g id="Mushroom"/><g id="Feather"/><g id="Wings"/><g id="Fish"/></svg>